<?xml version="1.0" encoding="UTF-8"?>
<svg width="16px" height="16px" viewBox="0 0 16 16" version="1.1" xmlns="http://www.w3.org/2000/svg" xmlns:xlink="http://www.w3.org/1999/xlink">
    <!-- Generator: Sketch 48.2 (47327) - http://www.bohemiancoding.com/sketch -->
    <title>Group</title>
    <desc>Created with Sketch.</desc>
    <defs></defs>
    <g id="cv" stroke="none" stroke-width="1" fill="none" fill-rule="evenodd" transform="translate(-1013.000000, -2192.000000)">
        <g id="Group-41" transform="translate(100.000000, 2182.000000)" fill="#0091FC" fill-rule="nonzero">
            <g id="Group-37" transform="translate(842.000000, 10.000000)">
                <g id="Group" transform="translate(71.000000, 0.000000)">
                    <path d="M7.80923541,15.7306253 C7.80923541,15.7306253 7.80923541,15.7306253 7.80923541,15.7306253 C7.7114802,15.7306253 7.61372499,15.6654551 7.54855485,15.600285 L0.053988712,4.52136112 C-0.0111814284,4.42360591 -0.0111814284,4.29326563 0.0214036418,4.19551042 C0.0865737821,4.06517014 0.184328993,4 0.314669273,4 L15.3038015,4 C15.4341418,4 15.531897,4.06517014 15.5970672,4.16292535 C15.6622373,4.26068056 15.6622373,4.39102084 15.5644821,4.48877605 L8.06991597,15.5676999 C8.00474583,15.6654551 7.90699062,15.7306253 7.80923541,15.7306253 Z M0.933785606,4.6517014 L7.80923541,14.8182433 L14.6846852,4.6517014 L0.933785606,4.6517014 Z" id="Shape"></path>
                    <path d="M7.7085507,15.6092661 L7.802511,15.6009562 C7.63958565,15.6009562 7.51183739,15.5078189 7.47925232,15.3448935 L5.01278328,4.42360591 C4.98019821,4.3258507 5.01278328,4.22809549 5.07795342,4.13034028 C5.14312356,4.06517014 5.24087877,4 5.33863398,4 L10.5522452,4 C10.6500004,4 10.7477556,4.03258507 10.8129258,4.13034028 C10.8780959,4.19551042 10.910681,4.3258507 10.8780959,4.39102084 L8.13095372,15.3123084 C8.09836865,15.5078189 7.87147605,15.6092661 7.7085507,15.6092661 Z M5.76223989,4.68428647 L7.9454396,14.0036165 L10.1286393,4.68428647 L5.76223989,4.68428647 Z" id="Shape"></path>
                    <path d="M15.3179212,4.56190982 L0.328788896,4.56190982 C0.198448615,4.56190982 0.100693404,4.49673968 0.0355232641,4.3663994 C-0.0296468762,4.23605912 0.00293819394,4.10571884 0.0681083343,4.00796363 L3.32661535,0.0977552105 C3.39178549,0.0325850702 3.4895407,0 3.58729591,0 L12.0594142,0 C12.1571694,0 12.2549246,0.0325850702 12.3200947,0.130340281 L15.5786017,4.0405487 C15.6437719,4.13830391 15.6763569,4.26864419 15.6111868,4.39898447 C15.5460167,4.49673968 15.4482615,4.56190982 15.3179212,4.56190982 Z M1.01307537,3.91020842 L14.6010496,3.91020842 L11.8964888,0.651701403 L3.75022126,0.651701403 L1.01307537,3.91020842 Z" id="Shape"></path>
                    <path d="M5.07582299,4.49376622 C4.94548271,4.49376622 4.81514243,4.42859608 4.78255736,4.2982558 C3.63628657,1.84407553 3.06315117,0.6169854 3.06315117,0.6169854 C3.06315117,0.6169854 3.02497342,1.09014356 3.18789877,1.02497342 C3.35082412,0.95980328 3.54633454,0.0249734203 3.61150468,0.187898771 L5.36908863,4.03757524 C5.4296119,4.18888342 5.37771969,4.36829547 5.23951195,4.44531158 C5.22890061,4.45122474 5.21778045,4.45653429 5.20616328,4.46118115 C5.17357821,4.49376622 5.10840806,4.49376622 5.07582299,4.49376622 Z" id="Shape"></path>
                    <path d="M10.332268,4.56832708 C10.2996829,4.56832708 10.5514786,4.67746274 10.5188936,4.64487767 C10.3559682,4.57970753 10.258213,4.38419711 10.3559682,4.22127176 L11.6682558,0.201927674 C11.733426,0.0390023236 11.9289364,-0.0587528869 12.0918617,0.0390023236 C12.2547871,0.104172464 12.3525423,0.299682885 12.2547871,0.462608236 L10.9424995,4.48195232 C10.9099144,4.6122926 10.4626082,4.56832708 10.332268,4.56832708 Z" id="Shape"></path>
                    <path d="M10.6614713,4.32566806 C10.5637161,4.32566806 10.4659609,4.29308299 10.4007907,4.19532778 L7.98949553,0.871650627 L5.57820034,4.16274271 C5.48044513,4.29308299 5.25234964,4.32566806 5.12200936,4.22791285 C4.99166908,4.13015764 4.95908401,3.90206215 5.05683922,3.77172187 L7.72881497,0.122194013 C7.85915525,-0.0407313377 8.11983581,-0.0407313377 8.25017609,0.122194013 L10.9221518,3.80430694 C11.0199071,3.93464722 10.987322,4.16274271 10.8569817,4.26049792 C10.8243966,4.29308299 10.7266414,4.32566806 10.6614713,4.32566806 Z" id="Shape"></path>
                </g>
            </g>
        </g>
    </g>
</svg>