<?xml version="1.0" encoding="UTF-8"?>
<svg width="20px" height="17px" viewBox="0 0 20 17" version="1.1" xmlns="http://www.w3.org/2000/svg" xmlns:xlink="http://www.w3.org/1999/xlink">
    <!-- Generator: Sketch 48.2 (47327) - http://www.bohemiancoding.com/sketch -->
    <title>noun_683011_cc</title>
    <desc>Created with Sketch.</desc>
    <defs></defs>
    <g id="cv" stroke="none" stroke-width="1" fill="none" fill-rule="evenodd" transform="translate(-325.000000, -518.000000)">
        <g id="Group-25" transform="translate(100.000000, 513.000000)" fill="#0091FC" fill-rule="nonzero">
            <g id="Group-42">
                <g id="Group-21" transform="translate(225.666667, 0.000000)">
                    <g id="noun_683011_cc" transform="translate(0.000000, 5.000000)">
                        <path d="M18.6806698,3.46748012 L15.8610063,3.46748012 L15.8610063,0.32255629 C15.8610063,0.14441337 15.7180384,0 15.5416786,0 L0.319327688,0 C0.142967876,0 0,0.14441337 0,0.32255629 L0,10.8572447 C0,11.0353876 0.142967876,11.179801 0.319327688,11.179801 L3.14218445,11.179801 L3.14218445,14.3118226 C3.14218445,14.4899655 3.28515233,14.6343789 3.46151214,14.6343789 L14.5517628,14.6343789 L18.5210059,16.9567842 C18.6200028,17.0145191 18.742001,17.0143974 18.8408848,16.956465 C18.9397685,16.8985325 19.0004523,16.7916274 18.9999975,16.6761602 L18.9999975,3.7739086 C18.9914822,3.60209355 18.8509779,3.46726495 18.6806698,3.46748012 Z M3.13899118,3.79003641 L3.13899118,10.5346884 L0.638655377,10.5346884 L0.638655377,0.64511258 L15.2223509,0.64511258 L15.2223509,3.46748012 L3.45831887,3.46748012 C3.3736279,3.46748012 3.29240565,3.50146363 3.23252009,3.56195467 C3.17263453,3.62244571 3.13899118,3.70448916 3.13899118,3.79003641 Z M18.3613421,16.1310401 L14.7976451,14.0473264 C14.7489786,14.0194639 14.6939199,14.0050039 14.6379812,14.0053941 L3.78083983,14.0053941 L3.78083983,10.8636959 L3.78083983,4.1125927 L18.3613421,4.1125927 L18.3613421,16.1310401 Z M6.20134371,7.28332103 C6.20134371,7.10517811 6.34431158,6.96076474 6.5206714,6.96076474 L15.6215105,6.96076474 C15.7978703,6.96076474 15.9408382,7.10517811 15.9408382,7.28332103 C15.9408382,7.46146395 15.7978703,7.60587732 15.6215105,7.60587732 L6.5206714,7.60587732 C6.34431158,7.60587732 6.20134371,7.46146395 6.20134371,7.28332103 Z M6.20134371,10.5088839 C6.20134371,10.330741 6.34431158,10.1863276 6.5206714,10.1863276 L12.4282336,10.1863276 C12.6045934,10.1863276 12.7475613,10.330741 12.7475613,10.5088839 C12.7475613,10.6870269 12.6045934,10.8314402 12.4282336,10.8314402 L6.5206714,10.8314402 C6.34431158,10.8314402 6.20134371,10.6870269 6.20134371,10.5088839 Z" id="Shape"></path>
                    </g>
                </g>
            </g>
        </g>
    </g>
</svg>