<?xml version="1.0" encoding="UTF-8"?>
<svg width="15px" height="15px" viewBox="0 0 14 14" version="1.1" xmlns="http://www.w3.org/2000/svg" xmlns:xlink="http://www.w3.org/1999/xlink">
    <!-- Generator: Sketch 48.2 (47327) - http://www.bohemiancoding.com/sketch -->
    <title>Fill 1</title>
    <desc>Created with Sketch.</desc>
    <defs></defs>
    <g id="cv" stroke="none" stroke-width="1" fill="none" fill-rule="evenodd" transform="translate(-1385.000000, -32.000000)">
        <g id="Group-26" transform="translate(1278.000000, 30.000000)" fill="#21245D">
            <path d="M107,9.17781136 C107,12.3483675 109.005463,15.0382293 111.787416,15.9877219 C112.13763,16.0533713 112.265255,15.8317496 112.265255,15.6414104 C112.265255,15.4713389 112.259239,15.0197241 112.255801,14.420949 C110.308778,14.8544992 109.897974,13.458679 109.897974,13.458679 C109.579558,12.6294702 109.120626,12.4091703 109.120626,12.4091703 C108.485083,11.9637239 109.168754,11.9725359 109.168754,11.9725359 C109.871332,12.0236455 110.240884,12.712303 110.240884,12.712303 C110.865255,13.8089559 111.878944,13.4921646 112.278146,13.3088751 C112.341743,12.8449235 112.522222,12.5285729 112.722468,12.3492487 C111.168201,12.1681622 109.534009,11.5522037 109.534009,8.80197973 C109.534009,8.01859328 109.806875,7.37796117 110.254635,6.876118 C110.182443,6.69459088 109.942234,5.96495761 110.322959,4.97669226 C110.322959,4.97669226 110.910804,4.78370954 112.248066,5.71249393 C112.806262,5.5529968 113.405279,5.47368883 114.00043,5.47060463 C114.594721,5.47368883 115.193738,5.5529968 115.752793,5.71249393 C117.089196,4.78370954 117.675752,4.97669226 117.675752,4.97669226 C118.057766,5.96495761 117.817557,6.69459088 117.745365,6.876118 C118.193984,7.37796117 118.465132,8.01859328 118.465132,8.80197973 C118.465132,11.5592533 116.828361,12.1659592 115.268938,12.3435209 C115.520319,12.5651426 115.744199,13.0030988 115.744199,13.6728105 C115.744199,14.6319963 115.735605,15.4061302 115.735605,15.6414104 C115.735605,15.833512 115.86151,16.0568961 116.216882,15.9868407 C118.995826,15.0355857 121,12.3474863 121,9.17781136 C121,5.21329435 117.865684,2 113.99957,2 C110.134316,2 107,5.21329435 107,9.17781136 Z" id="Fill-1"></path>
        </g>
    </g>
</svg>
