<?xml version="1.0" encoding="UTF-8"?>
<svg width="15px" height="15px" viewBox="0 0 13 13" version="1.1" xmlns="http://www.w3.org/2000/svg" xmlns:xlink="http://www.w3.org/1999/xlink">
    <!-- Generator: Sketch 48.2 (47327) - http://www.bohemiancoding.com/sketch -->
    <title>instagram</title>
    <desc>Created with Sketch.</desc>
    <defs></defs>
    <g id="cv" stroke="none" stroke-width="1" fill="none" fill-rule="evenodd" transform="translate(-1309.000000, -32.000000)">
        <g id="Group-26" transform="translate(1278.000000, 30.000000)" fill="#21245D" fill-rule="nonzero">
            <g id="instagram" transform="translate(31.000000, 2.000000)">
                <path d="M12.9608989,3.82005722 C12.9500991,3.28083082 12.847942,2.74733951 12.6587717,2.24226889 C12.4955562,1.80854585 12.2396988,1.41564402 11.90904,1.09096 C11.584356,0.760301205 11.1914542,0.504443768 10.7577311,0.341228333 C10.2526605,0.152057976 9.71916918,0.0499008971 9.17994278,0.0391011111 C8.48663833,0.00749666667 8.26530611,0 6.5,0 C4.73469389,0 4.51336167,0.00749666667 3.82005722,0.0391011111 C3.28083082,0.0499008971 2.74733951,0.152057976 2.24226889,0.341228333 C1.80854585,0.504443768 1.41564402,0.760301205 1.09096,1.09096 C0.760301205,1.41564402 0.504443768,1.80854585 0.341228333,2.24226889 C0.152057976,2.74733951 0.0499008971,3.28083082 0.0391011111,3.82005722 C0.00749666667,4.51336167 0,4.73469389 0,6.5 C0,8.26530611 0.00749666667,8.48663833 0.0391011111,9.17994278 C0.0499008971,9.71916918 0.152057976,10.2526605 0.341228333,10.7577311 C0.504443768,11.1914542 0.760301205,11.584356 1.09096,11.90904 C1.4156322,12.2397132 1.80853742,12.4955729 2.24226889,12.6587717 C2.74733951,12.847942 3.28083082,12.9500991 3.82005722,12.9608989 C4.51336167,12.9925539 4.73469389,13 6.5,13 C8.26530611,13 8.48663833,12.9925539 9.17994278,12.9608989 C9.71916918,12.9500991 10.2526605,12.847942 10.7577311,12.6587717 C11.6308504,12.3210886 12.3210814,11.6308576 12.6587644,10.7577383 C12.8479348,10.2526677 12.9500919,9.71917641 12.9608917,9.17995 C12.9925033,8.48663833 13,8.26530611 13,6.5 C13,4.73469389 12.9925033,4.51336167 12.9608989,3.82005722 Z M11.7909494,9.12656333 C11.786071,9.53873189 11.7103525,9.9469922 11.5671039,10.3334978 C11.348456,10.9003902 10.9003889,11.3484599 10.3334978,11.5671111 C9.94699083,11.7103547 9.53873138,11.786073 9.12656333,11.7909567 C8.44123944,11.8222 8.23568778,11.8288156 6.5,11.8288156 C4.76431222,11.8288156 4.55876056,11.8222 3.87343667,11.7909494 C3.46126904,11.7860681 3.05300961,11.7103522 2.66650222,11.5671111 C2.38416408,11.462935 2.12877141,11.2967897 1.91911056,11.0808967 C1.70321399,10.8712345 1.53706614,10.6158392 1.43288889,10.3334978 C1.2896403,9.9469922 1.21392181,9.53873189 1.20904333,9.12656333 C1.1778,8.44114556 1.17118444,8.23560111 1.17118444,6.5 C1.17118444,4.76439889 1.1778,4.55885444 1.20905056,3.87343667 C1.21393188,3.46126904 1.28964776,3.05300961 1.43288889,2.66650222 C1.53706499,2.38416408 1.70321028,2.12877141 1.91910333,1.91911056 C2.12876554,1.70321399 2.38416082,1.53706614 2.66650222,1.43288889 C3.05300917,1.2896453 3.46126862,1.21392697 3.87343667,1.20904333 C4.55885444,1.1778 4.76439889,1.17118444 6.5,1.17118444 C8.23560111,1.17118444 8.44114556,1.1778 9.12656333,1.20905056 C9.53873138,1.21393419 9.94699083,1.28965252 10.3334978,1.43289611 C10.6158359,1.53707221 10.8712286,1.7032175 11.0808894,1.91911056 C11.2967851,2.12877068 11.4629329,2.38416341 11.5671111,2.66650222 C11.7103547,3.05300917 11.786073,3.46126862 11.7909567,3.87343667 C11.8222072,4.55882556 11.8288228,4.76444222 11.8288228,6.5 C11.8288228,8.23555778 11.8222,8.44114556 11.7909494,9.12656333 Z M6.5,3.16214889 C4.65655573,3.16214889 3.16214889,4.65655573 3.16214889,6.5 C3.16214889,8.34344427 4.65655573,9.83785111 6.5,9.83785111 C8.34344427,9.83785111 9.83785111,8.34344427 9.83785111,6.5 C9.83783117,4.65656399 8.34343601,3.16216883 6.5,3.16214889 Z M6.5,8.66666667 C5.30338304,8.66666667 4.33333333,7.69661696 4.33333333,6.5 C4.33333333,5.30338304 5.30338304,4.33333333 6.5,4.33333333 C7.69661696,4.33333333 8.66666667,5.30338304 8.66666667,6.5 C8.66666667,7.07463573 8.43839351,7.62573587 8.03206469,8.03206469 C7.62573587,8.43839351 7.07463573,8.66666667 6.5,8.66666667 Z M10.7497144,3.0303 C10.7497144,3.4610821 10.4004965,3.8103 9.96971444,3.8103 C9.53893234,3.8103 9.18971444,3.4610821 9.18971444,3.0303 C9.18971444,2.5995179 9.53893234,2.2503 9.96971444,2.2503 C10.4004965,2.2503 10.7497144,2.5995179 10.7497144,3.0303 Z" id="Shape"></path>
            </g>
        </g>
    </g>
</svg>
