<?xml version="1.0" encoding="UTF-8"?>
<svg width="26px" height="12px" viewBox="0 0 26 12" version="1.1" xmlns="http://www.w3.org/2000/svg" xmlns:xlink="http://www.w3.org/1999/xlink">
    <!-- Generator: Sketch 48.2 (47327) - http://www.bohemiancoding.com/sketch -->
    <title>Group</title>
    <desc>Created with Sketch.</desc>
    <defs></defs>
    <g id="cv" stroke="none" stroke-width="1" fill="none" fill-rule="evenodd" transform="translate(-1042.000000, -2444.000000)">
        <g id="Group-41" transform="translate(100.000000, 2182.000000)" fill="#0091FC" fill-rule="nonzero">
            <g id="Group-39" transform="translate(842.000000, 260.000000)">
                <g id="Group" transform="translate(100.000000, 2.000000)">
                    <path d="M15.4273898,0 C15.1513929,0 14.9147433,0.152386343 14.8655906,0.362360266 L11.0206165,11.4405223 L11.0147081,11.461772 C11.0049027,11.4958782 11,11.5269765 11,11.5588025 C11,11.8021549 11.2573289,12 11.5725474,12 C11.8121512,12 12.0292528,11.8832724 12.110713,11.7089086 L12.1342837,11.6573854 L12.1304495,11.6573854 L15.981332,0.558749924 C15.9931488,0.5223635 16,0.482192888 16,0.442750005 C15.9999371,0.197845115 15.7436139,0 15.4273898,0 Z" id="Shape"></path>
                    <path d="M7,2.4350327 C7,2.19547578 6.80657008,2 6.56864844,2 C6.48787082,2 6.41226335,2.02239876 6.34111453,2.06566802 L0.216387266,5.6259252 C0.0815365434,5.70501337 0,5.84532801 0,6.00202384 C0,6.15723915 0.0830069523,6.30051482 0.216387266,6.37735834 L6.33518546,9.93613501 C6.62869804,10.1159937 7,9.89133748 7,9.56896722 C7,9.42569155 6.93255092,9.29583603 6.81543997,9.21302269 L6.75539037,9.17046982 L6.75316104,9.1756755 L1.29699549,6.00202384 L6.8154874,2.79102499 C6.93108051,2.71040854 7,2.57682786 7,2.4350327 Z" id="Shape"></path>
                    <path d="M25.7835893,5.62528102 L19.6648866,2.06578093 C19.3639419,1.88136399 19,2.11060681 19,2.43241651 C19,2.57430142 19.068927,2.70796666 19.18458,2.78858635 L19.2468183,2.82739084 L24.7036229,6.00161772 L19.2468183,9.17732606 L19.2431181,9.17283391 L19.18458,9.2146491 C19.0674564,9.29751486 19,9.42745258 19,9.57081894 C19,9.89339326 19.3884198,10.1092074 19.6589569,9.94194667 L25.7843483,6.37795443 C25.916984,6.30029765 26,6.15616666 26,6.00161772 C26,5.84706878 25.916984,5.7029378 25.7835893,5.62528102 Z" id="Shape"></path>
                </g>
            </g>
        </g>
    </g>
</svg>