<?xml version="1.0" encoding="UTF-8"?>
<svg width="15px" height="15px" viewBox="0 0 13 13" version="1.1" xmlns="http://www.w3.org/2000/svg" xmlns:xlink="http://www.w3.org/1999/xlink">
    <!-- Generator: Sketch 48.2 (47327) - http://www.bohemiancoding.com/sketch -->
    <title>linkedin</title>
    <desc>Created with Sketch.</desc>
    <defs></defs>
    <g id="cv" stroke="none" stroke-width="1" fill="none" fill-rule="evenodd" transform="translate(-1347.000000, -32.000000)">
        <g id="Group-26" transform="translate(1278.000000, 30.000000)" fill="#21245D" fill-rule="nonzero">
            <g id="linkedin" transform="translate(69.000000, 2.000000)">
                <path d="M2.88888889,1.44444444 C2.88888889,2.23888889 2.38333333,2.88888889 1.44444444,2.88888889 C0.577777778,2.88888889 0,2.23888889 0,1.51666667 C0,0.722222222 0.577777778,0 1.44444444,0 C2.31111111,0 2.88888889,0.65 2.88888889,1.44444444 Z M0,13 L2.88888889,13 L2.88888889,3.61111111 L0,3.61111111 L0,13 Z M9.82222222,3.75555556 C8.30555556,3.75555556 7.43888889,4.62222222 7.07777778,5.2 L7.00555556,5.2 L6.86111111,3.97222222 L4.26111111,3.97222222 C4.26111111,4.76666667 4.33333333,5.70555556 4.33333333,6.78888889 L4.33333333,13 L7.22222222,13 L7.22222222,7.87222222 C7.22222222,7.58333333 7.22222222,7.36666667 7.29444444,7.15 C7.51111111,6.64444444 7.87222222,5.99444444 8.66666667,5.99444444 C9.67777778,5.99444444 10.1111111,6.86111111 10.1111111,8.01666667 L10.1111111,13 L13,13 L13,7.65555556 C13,4.98333333 11.6277778,3.75555556 9.82222222,3.75555556 Z" id="Shape"></path>
            </g>
        </g>
    </g>
</svg>
