<?xml version="1.0" encoding="UTF-8"?>
<svg width="13px" height="18px" viewBox="0 0 13 18" version="1.1" xmlns="http://www.w3.org/2000/svg" xmlns:xlink="http://www.w3.org/1999/xlink">
    <!-- Generator: Sketch 48.2 (47327) - http://www.bohemiancoding.com/sketch -->
    <title>noun_1290667_cc</title>
    <desc>Created with Sketch.</desc>
    <defs></defs>
    <g id="cv" stroke="none" stroke-width="1" fill="none" fill-rule="evenodd" transform="translate(-100.000000, -4186.000000)">
        <g id="Group-31" transform="translate(-2.000000, 4145.000000)" fill="#0091FC" fill-rule="nonzero">
            <g id="Group-33">
                <g id="Group-32" transform="translate(102.000000, 38.000000)">
                    <g id="Group-27">
                        <g id="noun_1290667_cc" transform="translate(0.000000, 3.000000)">
                            <g id="Group">
                                <path d="M6.50055319,17.8680938 L1.4106383,10.6153594 C0.533276596,9.36492188 0.0885106383,8.03095313 0.0885106383,6.65085938 C0.0885106383,3.05634375 2.96496809,0.132046875 6.50041489,0.132046875 C10.0354468,0.132046875 12.9112128,3.05648438 12.9112128,6.65085938 C12.9112128,8.01225 12.4544149,9.38292188 11.5903298,10.6145156 L6.50055319,17.8680938 Z M6.50055319,0.76471875 C3.30808511,0.76471875 0.710989362,3.40523438 0.710989362,6.65085937 C0.710989362,7.89665625 1.11689362,9.106875 1.9173617,10.2477656 L6.50069149,16.7785313 L11.0840213,10.2469219 C11.8837979,9.10715625 12.2892872,7.89721875 12.2892872,6.65085938 C12.2890106,3.40523438 9.69232979,0.76471875 6.50055319,0.76471875 Z" id="Shape"></path>
                                <path d="M6.50055319,10.5674062 C4.37643617,10.5674062 2.64826596,8.8104375 2.64826596,6.65071875 L3.27060638,6.65071875 C3.27060638,8.46154687 4.71969149,9.93459375 6.50055319,9.93459375 C8.2808617,9.93459375 9.72925532,8.46154687 9.72925532,6.65071875 C9.72925532,4.84045312 8.2808617,3.36740625 6.50055319,3.36740625 L6.50055319,2.73459375 C8.62397872,2.73459375 10.3515957,4.49128125 10.3515957,6.65071875 C10.3515957,8.8104375 8.62397872,10.5674062 6.50055319,10.5674062 Z" id="Shape"></path>
                                <path d="M3.42978723,5.634 L2.83801064,5.43810937 C3.2172234,4.25179687 4.1403617,3.31326562 5.30718085,2.92739062 L5.49955319,3.529125 C4.52137234,3.85270312 3.74773404,4.6395 3.42978723,5.634 Z" id="Shape"></path>
                                <path d="M6.50055319,8.37379687 C5.56607447,8.37379687 4.80585106,7.60092187 4.80585106,6.65085937 C4.80585106,5.70121875 5.56607447,4.928625 6.50055319,4.928625 C7.43447872,4.928625 8.19414894,5.70121875 8.19414894,6.65085937 C8.19414894,7.60092187 7.43447872,8.37379687 6.50055319,8.37379687 Z M6.50055319,5.5614375 C5.90932979,5.5614375 5.42819149,6.05025 5.42819149,6.65085938 C5.42819149,7.25189063 5.90932979,7.74098438 6.50055319,7.74098438 C7.0912234,7.74098438 7.57180851,7.25189063 7.57180851,6.65085937 C7.57180851,6.05010937 7.0912234,5.5614375 6.50055319,5.5614375 Z" id="Shape"></path>
                                <g transform="translate(6.085106, 11.390625)" id="Rectangle-path">
                                    <rect x="0.104276596" y="0.125296875" width="1" height="1"></rect>
                                    <rect x="0.104276596" y="1.39092188" width="1" height="1"></rect>
                                    <rect x="0.104276596" y="2.65654688" width="1" height="1"></rect>
                                </g>
                            </g>
                        </g>
                    </g>
                </g>
            </g>
        </g>
    </g>
</svg>