<?xml version="1.0" encoding="UTF-8"?>
<svg width="77px" height="36px" viewBox="0 0 77 36" version="1.1" xmlns="http://www.w3.org/2000/svg" xmlns:xlink="http://www.w3.org/1999/xlink">
    <!-- Generator: Sketch 48.2 (47327) - http://www.bohemiancoding.com/sketch -->
    <title>Shape</title>
    <desc>Created with Sketch.</desc>
    <defs></defs>
    <g id="Page-1" stroke="none" stroke-width="1" fill="none" fill-rule="evenodd">
        <g id="patch" transform="translate(37.619399, 19.591171) rotate(9.000000) translate(-37.619399, -19.591171) translate(-2.380601, 6.091171)" fill="#000000" fill-rule="nonzero">
            <path d="M79.2057917,13.3698494 C79.1250517,12.9877729 78.7454809,12.7457604 78.3612699,12.8252066 C75.8049677,13.3597464 73.1201311,13.1393176 70.8371382,12.6986897 C70.7953762,6.59441991 64.3278247,5.56414498 56.3512707,5.56414498 C49.0408215,5.56414498 43.0115398,6.44011976 42.0206188,11.2835828 C20.5741738,8.38586297 1.19820078,0.144352598 0.996582823,0.0577883016 C0.636500989,-0.095593352 0.216096235,0.0665135662 0.0592565477,0.423791954 C-0.0975832349,0.781529492 0.0676089959,1.1966703 0.428618816,1.35188893 C0.633020921,1.43937162 20.1997092,9.76469092 41.8663296,12.6869794 C41.8660976,12.7108592 41.8616894,12.7312948 41.8616894,12.7551746 C41.8616894,18.9122555 48.3487298,26.7253074 56.3512691,26.7253074 C63.7700675,26.7253074 69.8770732,20.011644 70.7294833,14.1264253 C72.0832701,14.3780814 73.5674474,14.5546541 75.0991871,14.5546541 C76.2731651,14.5546541 77.4731284,14.4527059 78.6563868,14.2056419 C79.0415276,14.1252772 79.2874597,13.7510075 79.2057917,13.3698494 Z" id="Shape"></path>
        </g>
    </g>
</svg>