<?xml version="1.0" encoding="UTF-8"?>
<svg width="14px" height="20px" viewBox="0 0 14 20" version="1.1" xmlns="http://www.w3.org/2000/svg" xmlns:xlink="http://www.w3.org/1999/xlink">
    <!-- Generator: Sketch 48.2 (47327) - http://www.bohemiancoding.com/sketch -->
    <title>noun_126703_cc</title>
    <desc>Created with Sketch.</desc>
    <defs></defs>
    <g id="cv" stroke="none" stroke-width="1" fill="none" fill-rule="evenodd" transform="translate(-220.000000, -516.000000)">
        <g id="Group-25" transform="translate(100.000000, 513.000000)" fill="#0091FC" fill-rule="nonzero">
            <g id="Group-42">
                <g id="Group-23" transform="translate(119.333333, 0.000000)">
                    <g id="noun_126703_cc" transform="translate(7.679458, 13.303393) rotate(-345.000000) translate(-7.679458, -13.303393) translate(2.679458, 4.303393)">
                        <g id="Group">
                            <path d="M7.81224614,17.9895845 L1.57051928,17.9895845 C0.771004158,17.9895845 0.120809175,17.3172238 0.120809175,16.4904524 L0.120809175,1.62405971 C0.120809175,0.79728839 0.771004158,0.12492767 1.57051928,0.12492767 L7.81224614,0.12492767 C8.61176126,0.12492767 9.26195624,0.79728839 9.26195624,1.62405971 L9.26195624,16.4904524 C9.26195624,17.3172238 8.61176126,17.9895845 7.81224614,17.9895845 Z M1.57051928,0.62463835 C1.0375092,0.62463835 0.604045877,1.07287883 0.604045877,1.62405971 L0.604045877,16.4904524 C0.604045877,17.0416333 1.0375092,17.4898738 1.57051928,17.4898738 L7.81224614,17.4898738 C8.34525622,17.4898738 8.77871954,17.0416333 8.77871954,16.4904524 L8.77871954,1.62405971 C8.77871954,1.07287883 8.34525622,0.62463835 7.81224614,0.62463835 L1.57051928,0.62463835 Z" id="Shape"></path>
                            <rect id="Rectangle-path" x="0.362427526" y="14.5748116" width="8.65791037" height="1"></rect>
                            <rect id="Rectangle-path" x="0.512230904" y="2.16549623" width="8.65791037" height="1"></rect>
                            <path d="M4.93312187,17.2869913 C4.40011179,17.2869913 3.96664847,16.8387508 3.96664847,16.2875699 C3.96664847,15.736389 4.40011179,15.2881485 4.93312187,15.2881485 C5.46613195,15.2881485 5.89959527,15.736389 5.89959527,16.2875699 C5.89959527,16.8387508 5.46589033,17.2869913 4.93312187,17.2869913 Z M4.93312187,15.7878592 C4.66661683,15.7878592 4.44988517,16.0119795 4.44988517,16.2875699 C4.44988517,16.5631603 4.66661683,16.7872806 4.93312187,16.7872806 C5.19962691,16.7872806 5.41635857,16.5631603 5.41635857,16.2875699 C5.41635857,16.0119795 5.19962691,15.7878592 4.93312187,15.7878592 Z" id="Shape"></path>
                            <path d="M4.69150352,1.83218921 C4.44722737,1.83218921 4.24861708,1.62680812 4.24861708,1.37420437 C4.24861708,1.12160062 4.44722737,0.916219532 4.69150352,0.916219532 C4.93577967,0.916219532 5.13438996,1.12160062 5.13438996,1.37420437 C5.13438996,1.62680812 4.93577967,1.83218921 4.69150352,1.83218921 Z M4.69150352,1.16607487 C4.5806007,1.16607487 4.49023543,1.25952077 4.49023543,1.37420437 C4.49023543,1.48888797 4.5806007,1.58233387 4.69150352,1.58233387 C4.80240634,1.58233387 4.8927716,1.48888797 4.8927716,1.37420437 C4.8927716,1.25952077 4.80240634,1.16607487 4.69150352,1.16607487 Z" id="Shape"></path>
                        </g>
                    </g>
                </g>
            </g>
        </g>
    </g>
</svg>