<?xml version="1.0" encoding="UTF-8"?>
<svg width="15px" height="15px" viewBox="0 0 15 15" version="1.1" xmlns="http://www.w3.org/2000/svg" xmlns:xlink="http://www.w3.org/1999/xlink">
    <!-- Generator: Sketch 48.2 (47327) - http://www.bohemiancoding.com/sketch -->
    <title>noun_1344928_cc</title>
    <desc>Created with Sketch.</desc>
    <defs></defs>
    <g id="cv" stroke="none" stroke-width="1" fill="none" fill-rule="evenodd" transform="translate(-524.000000, -519.000000)">
        <g id="Group-25" transform="translate(100.000000, 513.000000)" fill="#0091FC" fill-rule="nonzero">
            <g id="Group-42">
                <g id="Group-22" transform="translate(424.000000, 0.000000)">
                    <g id="noun_1344928_cc" transform="translate(0.000000, 6.000000)">
                        <g id="Group">
                            <path d="M8.4375,0.3125 L8.4375,14.6875 L14.6875,14.6875 L14.6875,0.3125 L8.4375,0.3125 Z M14.0625,14.0625 L9.0625,14.0625 L9.0625,0.9375 L14.0625,0.9375 L14.0625,14.0625 Z" id="Shape"></path>
                            <path d="M0.3125,6.5625 L6.5625,6.5625 L6.5625,0.3125 L0.3125,0.3125 L0.3125,6.5625 Z M0.9375,0.9375 L5.9375,0.9375 L5.9375,5.9375 L0.9375,5.9375 L0.9375,0.9375 Z" id="Shape"></path>
                            <path d="M0.3125,14.6875 L6.5625,14.6875 L6.5625,8.4375 L0.3125,8.4375 L0.3125,14.6875 Z M0.9375,9.0625 L5.9375,9.0625 L5.9375,14.0625 L0.9375,14.0625 L0.9375,9.0625 Z" id="Shape"></path>
                        </g>
                    </g>
                </g>
            </g>
        </g>
    </g>
</svg>