<?xml version="1.0" encoding="UTF-8"?>
<svg width="68px" height="60px" viewBox="0 0 68 60" version="1.1" xmlns="http://www.w3.org/2000/svg" xmlns:xlink="http://www.w3.org/1999/xlink">
    <!-- Generator: Sketch 48.2 (47327) - http://www.bohemiancoding.com/sketch -->
    <title>potter</title>
    <desc>Created with Sketch.</desc>
    <defs></defs>
    <g id="casestudy1-copy-11" stroke="none" stroke-width="1" fill="none" fill-rule="evenodd" transform="translate(-1074.000000, -57.000000)">
        <g id="potter" transform="translate(1110.744826, 87.197821) rotate(12.000000) translate(-1110.744826, -87.197821) translate(1075.744826, 60.697821)" fill="#000000" fill-rule="nonzero">
            <g id="Group" transform="translate(-0.000000, 0.000000)">
                <path d="M29.5737722,38.9173768 C29.4335354,45.247126 24.4260171,50.1977406 18.0243323,50.3363838 C11.6226475,50.4750269 6.60938857,45.0387558 6.47407241,38.9173768 C6.33383565,32.5884384 11.8334127,27.6329591 18.0235122,27.4991806 C24.4260171,27.3605374 29.438456,32.7976193 29.5737722,38.9173768 C29.6082163,40.4838012 32.0685102,40.4870443 32.0340661,38.9173768 C31.8643058,31.2538967 25.7758984,25.2346757 18.0243323,25.0668445 C10.2727662,24.8990134 4.17779807,31.5060488 4.01377847,38.9173768 C3.84401819,46.5808569 10.5269966,52.6065641 18.0235122,52.7687198 C25.7758984,52.936551 31.8700465,46.3303263 32.0340661,38.9173768 C32.0685102,37.3477093 29.6082163,37.3509524 29.5737722,38.9173768 Z" id="Shape"></path>
                <path d="M63.2658574,38.9173768 C63.1256206,45.247126 58.1189225,50.1977406 51.7164176,50.3363838 C45.3139127,50.4750269 40.3014738,45.0387558 40.1661576,38.9173768 C40.0259209,32.5884384 45.5254979,27.6329591 51.7164176,27.4991806 C58.1189225,27.3605374 63.1305412,32.7976193 63.2658574,38.9173768 C63.3003015,40.4838012 65.7605954,40.4870443 65.7261513,38.9173768 C65.556391,31.2538967 59.4679837,25.2346757 51.7164176,25.0668445 C43.9648515,24.8990134 37.8698833,31.5052381 37.7058637,38.9173768 C37.5361034,46.5816677 44.2182618,52.6065641 51.7164176,52.7687198 C59.4679837,52.936551 65.5621317,46.3303263 65.7261513,38.9173768 C65.7605954,37.3477093 63.3003015,37.3509524 63.2658574,38.9173768 Z" id="Shape"></path>
                <path d="M32.0357063,38.9854822 C32.2325298,35.4075159 37.5123206,35.4083266 37.708324,38.9854822 C37.7936142,40.5454204 40.2539081,40.5535282 40.1686179,38.9854822 C40.0062385,36.0301939 37.8534813,33.9400064 34.8716051,33.7827154 C31.8971097,33.6254243 29.7246702,36.2661305 29.5754124,38.9854822 C29.4893021,40.5535282 31.949596,40.5454204 32.0357063,38.9854822 Z" id="Shape"></path>
                <path d="M64.9749416,40.5389341 C65.9319959,40.5389341 66.8882302,40.5389341 67.8452845,40.5389341 C68.7391913,40.5389341 69.4854805,39.8011255 69.4854805,38.9173768 C69.4854805,38.033628 68.7391913,37.2958194 67.8452845,37.2958194 C66.8882302,37.2958194 65.9319959,37.2958194 64.9749416,37.2958194 C64.0810348,37.2958194 63.3347456,38.033628 63.3347456,38.9173768 C63.3347456,39.8011255 64.0810348,40.5389341 64.9749416,40.5389341 Z" id="Shape"></path>
                <path d="M1.6904409,40.5389341 C2.69260063,40.5389341 3.69476036,40.5389341 4.69692009,40.5389341 C6.81277287,40.5389341 6.81277287,37.2958194 4.69692009,37.2958194 C3.69476036,37.2958194 2.69260063,37.2958194 1.6904409,37.2958194 C-0.424591784,37.2958194 -0.424591784,40.5389341 1.6904409,40.5389341 Z" id="Shape"></path>
                <path d="M19.0051695,18.324409 C17.9119789,15.2612871 16.8179682,12.1981653 15.7247776,9.1358542 C15.2204173,9.63448309 14.7160571,10.133112 14.2116968,10.6317409 C16.1709109,10.9925374 18.130125,11.3525231 20.089339,11.7125089 C20.892215,11.8600706 22.0001673,11.1571255 21.6024198,10.2166222 C20.3263474,7.19890393 19.051095,4.18118567 17.7750225,1.16265663 C17.1730706,-0.261881515 14.790686,0.362418071 15.4024791,1.80965802 C16.6785516,4.82737628 17.9538039,7.84509454 19.2298764,10.8636236 C19.7342366,10.3649947 20.2385969,9.86636579 20.7429571,9.3677369 C18.7837431,9.00694039 16.824529,8.64695465 14.8653149,8.28696892 C14.020614,8.13129941 13.0135337,8.83505531 13.3522342,9.78285559 C14.4454248,12.8459775 15.5394355,15.9090993 16.6326261,18.9714104 C17.1566687,20.4397306 19.5341327,19.8073232 19.0051695,18.324409 Z" id="Shape"></path>
            </g>
        </g>
    </g>
</svg>