<?xml version="1.0" encoding="UTF-8"?>
<svg width="15px" height="16px" viewBox="0 0 15 16" version="1.1" xmlns="http://www.w3.org/2000/svg" xmlns:xlink="http://www.w3.org/1999/xlink">
    <!-- Generator: Sketch 48.2 (47327) - http://www.bohemiancoding.com/sketch -->
    <title>Shape</title>
    <desc>Created with Sketch.</desc>
    <defs></defs>
    <g id="cv" stroke="none" stroke-width="1" fill="none" fill-rule="evenodd" transform="translate(-1003.000000, -2302.000000)">
        <g id="Group-41" transform="translate(100.000000, 2182.000000)" fill="#0091FC" fill-rule="nonzero">
            <g id="Group-38" transform="translate(842.000000, 120.000000)">
                <path d="M75.9776533,6.06254341 C75.9295183,5.9304082 75.8105967,5.8371585 75.6707221,5.82186857 L70.9112119,5.30144461 L68.6418841,1.08576516 C68.5752502,0.961935598 68.4444363,0.887751117 68.3036179,0.891715173 C68.1631771,0.896623052 68.0376486,0.981000821 67.9798867,1.10917197 L66.0140923,5.4747305 L61.3032834,6.33040035 C61.1649189,6.35550604 61.0527928,6.45706139 61.0142848,6.59221683 C60.975588,6.72737227 61.0169275,6.872721 61.1211255,6.96729206 L64.6657469,10.185917 L64.0237585,14.9305148 C64.0048821,15.069823 64.0667969,15.20781 64.1834534,15.286336 C64.2457457,15.3282418 64.317665,15.3493834 64.3899618,15.3493834 C64.4530092,15.3493834 64.5162453,15.3331496 64.5732522,15.3006821 L68.7296596,12.924136 L73.0434966,15.000924 C73.0950294,15.0256521 73.1505261,15.0367892 73.2052679,15.0375443 C73.4091336,15.0373555 73.5743026,14.8719978 73.5743026,14.668132 C73.5743026,14.6318892 73.569206,14.5969678 73.5593902,14.563934 L72.5897066,9.90560157 L75.8976171,6.4442254 C75.9948309,6.34267005 76.0257883,6.19467862 75.9776533,6.06254341 Z M71.9212912,9.53543422 C71.8372909,9.62339851 71.8018032,9.74685055 71.8267201,9.865961 L72.689563,14.010665 L68.8748196,12.1743631 C68.7653361,12.1216978 68.6367874,12.1262281 68.531268,12.1866328 L64.8560216,14.2879601 L65.4236367,10.0924785 C65.4398704,9.9720467 65.3958883,9.85123737 65.3058476,9.7695023 L62.1716004,6.92349868 L66.3370685,6.16693022 C66.4567452,6.1452223 66.5579231,6.06594117 66.6077569,5.95513636 L68.3459012,2.09471186 L70.3526575,5.82243486 C70.4102307,5.92946438 70.5168827,6.00138368 70.637692,6.01459721 L74.8461984,6.47480526 L71.9212912,9.53543422 Z" id="Shape"></path>
            </g>
        </g>
    </g>
</svg>