<?xml version="1.0" encoding="UTF-8"?>
<svg width="79px" height="41px" viewBox="0 0 79 41" version="1.1" xmlns="http://www.w3.org/2000/svg" xmlns:xlink="http://www.w3.org/1999/xlink">
    <!-- Generator: Sketch 48.2 (47327) - http://www.bohemiancoding.com/sketch -->
    <title>noun_184785_cc (1)</title>
    <desc>Created with Sketch.</desc>
    <defs></defs>
    <g id="cv" stroke="none" stroke-width="1" fill="none" fill-rule="evenodd" transform="translate(-1095.000000, -273.000000)">
        <g id="noun_184785_cc-(1)" transform="translate(1132.524457, 295.039563) rotate(13.000000) translate(-1132.524457, -295.039563) translate(1093.024457, 281.539563)" fill="#000000" fill-rule="nonzero">
            <path d="M0,2.45454545 C0,0 2.46875,0 17.28125,0 C17.28125,0 24.7023125,0 27.15625,0 C37.0296042,0 34.5625,2.45454545 39.5,2.45454545 C44.4358542,2.45454545 41.96875,0 51.84375,0 C54.2976875,0 61.71875,0 61.71875,0 C76.5296042,0 79,0 79,2.45454545 L79,4.90909091 C79,7.36363636 77.2348437,5.62090909 76.5296042,9.81818182 C74.0625,24.5454545 71.59375,27 59.2483542,27 C55.2127708,27 56.78125,27 56.78125,27 C56.78125,27 46.90625,27 44.4358542,19.6363636 C41.2190729,10.0366364 43.0270208,9.81818182 39.5,9.81818182 C35.9729792,9.81818182 37.7809271,10.0366364 34.5625,19.6363636 C32.09375,27 22.2171042,27 22.2171042,27 C22.2171042,27 23.7872292,27 19.75,27 C7.40460417,27 4.9375,24.5454545 2.46875,9.81818182 C1.76515625,5.62090909 0,7.36363636 0,4.90909091 L0,2.45454545 Z M46.90625,6.13636364 C46.90625,6.13636364 46.90625,17.1818182 54.3125,22.0909091 C54.8737292,22.4746364 55.6415104,22.3330909 56.0291042,21.7767273 C56.4150521,21.2179091 56.2735104,20.4537273 55.7131042,20.07 C52.9744375,18.1955455 51.2677083,15.2975455 50.2941979,12.1933636 C49.8736875,10.8507273 49.2688437,7.84309091 49.35525,6.34663636 C49.3675937,6.28036364 49.375,6.20836364 49.375,6.13636364 C49.375,5.45809091 48.822,4.90909091 48.140625,4.90909091 C47.4584271,4.90909091 46.90625,5.45809091 46.90625,6.13636364 Z M16.2131042,20.07 C13.4744375,18.1955455 11.7677083,15.2975455 10.7941979,12.1933636 C10.3736875,10.8507273 9.76884375,7.84309091 9.85525,6.34663636 C9.86759375,6.28036364 9.875,6.20836364 9.875,6.13636364 C9.875,5.45809091 9.322,4.90909091 8.640625,4.90909091 C7.95842708,4.90909091 7.40460417,5.45809091 7.40460417,6.13636364 C7.40460417,6.13636364 7.40460417,17.1818182 14.8108542,22.0909091 C15.3737292,22.4746364 16.1415104,22.3330909 16.5291042,21.7767273 C16.9150521,21.2187273 16.7735104,20.4537273 16.2131042,20.07 Z" id="Shape"></path>
        </g>
    </g>
</svg>