<?xml version="1.0" encoding="UTF-8"?>
<svg width="27px" height="35px" viewBox="0 0 27 35" version="1.1" xmlns="http://www.w3.org/2000/svg" xmlns:xlink="http://www.w3.org/1999/xlink">
    <!-- Generator: Sketch 48.2 (47327) - http://www.bohemiancoding.com/sketch -->
    <title>tattoo1</title>
    <desc>Created with Sketch.</desc>
    <defs></defs>
    <g id="Page-1" stroke="none" stroke-width="1" fill="none" fill-rule="evenodd">
        <g id="tattoo1" transform="translate(13.161842, 17.161842) rotate(-9.000000) translate(-13.161842, -17.161842) translate(-1.838158, 2.161842)" fill="#000000" fill-rule="nonzero">
            <path d="M29.9782925,4.02131027 C29.9201559,3.80820914 29.7525624,3.64241928 29.5384597,3.5868887 L27.0567072,2.94352581 L26.413121,0.461539324 C26.3577911,0.247636322 26.1918013,0.0798417494 25.9789014,0.0219055026 C25.7647986,-0.0366321404 25.5378658,0.0241106908 25.3814986,0.180678884 L21.8764684,3.68572112 C21.7221059,3.84008413 21.6611628,4.06441163 21.7156909,4.27570849 L22.4215483,6.99783467 L21.630992,7.78861922 C20.600823,7.07140767 19.3518403,6.64768626 18.0041758,6.64768626 C16.2051515,6.64768626 14.4975418,7.41248472 13.2987269,8.72617389 C12.0999119,7.41248472 10.3923022,6.64768626 8.59327792,6.64768626 C5.08263454,6.64768626 2.22672853,9.50380253 2.22672853,13.0144579 C2.22672853,16.2283655 3.91825042,19.425183 7.12302559,22.2966353 L4.60070288,24.8190168 L3.03663026,23.2549388 C2.8870791,23.1049862 2.6713726,23.043241 2.46368492,23.0899508 C2.25720006,23.1372621 2.08960654,23.2874152 2.01984272,23.4874856 L0.0343806237,29.1814752 C-0.0434020088,29.4045999 0.0131307315,29.652583 0.180323335,29.8195757 C0.297799177,29.937052 0.454968228,30 0.615745768,30 C0.683905805,30 0.752065843,29.9887736 0.818622135,29.9657194 L6.5127927,27.9806514 C6.7128625,27.9108874 6.86281461,27.7430928 6.91012567,27.5364068 C6.95743677,27.3299212 6.89529084,27.1134121 6.74533873,26.96366 L5.18126611,25.399582 L7.74526169,22.8355025 C10.3666671,25.0200896 12.9304371,26.2239706 13.0393178,26.2746397 C13.1215108,26.3129297 13.2101188,26.3319745 13.2987269,26.3319745 C13.3873349,26.3319745 13.475943,26.3129297 13.558136,26.2746397 C13.6679939,26.2235195 16.27692,24.999842 18.9227327,22.7778168 C22.4867013,19.7847786 24.3707252,16.40884 24.3707252,13.014458 C24.3707252,11.1478937 23.5584679,9.47172714 22.2746283,8.30611115 L23.0020113,7.57852519 L25.7247045,8.28433492 C25.775624,8.29756605 25.8273455,8.30398114 25.879067,8.30398114 C26.0402454,8.30398114 26.1974145,8.24063216 26.3144894,8.12355687 L29.8195196,4.61851464 C29.9758868,4.4623474 30.0364289,4.23441139 29.9782925,4.02131027 Z M1.61729752,28.3827972 L2.85941414,24.8196182 L5.18046424,27.1406763 L1.61729752,28.3827972 Z M23.1390331,13.014458 C23.1390331,19.6975735 14.8804409,24.2240177 13.298326,25.0293113 C12.6042211,24.676632 10.6259509,23.6090465 8.62359914,21.957162 L13.4706556,17.1099637 C13.5901862,17.2917161 13.6932783,17.5081751 13.7614133,17.7702414 C13.8335827,18.0474933 14.0833693,18.2313256 14.3572123,18.2313256 C14.4085328,18.2313256 14.4606552,18.2249105 14.5127776,18.2112785 C14.8419505,18.1256772 15.0392137,17.7894866 14.9538132,17.4603126 C14.4269761,15.4351503 12.5810416,15.0534527 12.5028581,15.0382169 C12.1692748,14.9738656 11.845715,15.1909761 11.7803616,15.5249615 C11.7154091,15.8587464 11.9335212,16.1821068 12.2671045,16.2470596 C12.2729182,16.2482624 12.5622475,16.3082284 12.8920219,16.527494 L7.99918291,21.4204249 C5.65497844,19.3367 3.45842065,16.4656987 3.45842065,13.014458 C3.45842065,10.1829997 5.76182934,7.87938267 8.59327788,7.87938267 C10.2619962,7.87938267 11.8328849,8.69530134 12.7951444,10.0623159 C13.0260866,10.3898862 13.571367,10.3898862 13.8023093,10.0623159 C14.7645688,8.69530134 16.3354574,7.87938267 18.0041758,7.87938267 C20.8356244,7.87938267 23.1390331,10.1829997 23.1390331,13.014458 Z M25.4909557,1.81291717 L25.9266287,3.493018 L23.4320712,5.98758404 L22.9962979,4.30758348 L25.4909557,1.81291717 Z M25.6926292,7.00352305 L24.0127096,6.56807408 L26.507242,4.07353308 L28.187287,4.50905723 L25.6926292,7.00352305 Z" id="Shape"></path>
        </g>
    </g>
</svg>