<?xml version="1.0" encoding="UTF-8"?>
<svg width="24px" height="15px" viewBox="0 0 24 15" version="1.1" xmlns="http://www.w3.org/2000/svg" xmlns:xlink="http://www.w3.org/1999/xlink">
    <!-- Generator: Sketch 48.2 (47327) - http://www.bohemiancoding.com/sketch -->
    <title>Group</title>
    <desc>Created with Sketch.</desc>
    <defs></defs>
    <g id="cv" stroke="none" stroke-width="1" fill="none" fill-rule="evenodd" transform="translate(-1006.000000, -2555.000000)">
        <g id="Group-41" transform="translate(100.000000, 2182.000000)" fill="#0091FC" fill-rule="nonzero">
            <g id="Group" transform="translate(918.000000, 380.500000) rotate(-270.000000) translate(-918.000000, -380.500000) translate(911.000000, 369.000000)">
                <path d="M8,0 L8,23 L14,23 L14,0 L8,0 Z M13.1428571,22.1153846 L8.85714286,22.1153846 L8.85714286,20.9677502 L10.1818182,20.9677502 L10.1818182,20.3120036 L8.85714286,20.3120036 L8.85714286,19.1643692 L10.1818182,19.1643692 L10.1818182,18.5086226 L8.85714286,18.5086226 L8.85714286,17.3609882 L11.5064935,17.3609882 L11.5064935,16.7049296 L8.85714286,16.7049296 L8.85714286,15.5572951 L10.1818182,15.5572951 L10.1818182,14.9015486 L8.85714286,14.9015486 L8.85714286,13.7539141 L10.1818182,13.7539141 L10.1818182,13.0981676 L8.85714286,13.0981676 L8.85714286,11.9505331 L11.5064935,11.9505331 L11.5064935,11.2947866 L8.85714286,11.2947866 L8.85714286,10.1471522 L10.1818182,10.1471522 L10.1818182,9.49140562 L8.85714286,9.49140562 L8.85714286,8.34377117 L10.1818182,8.34377117 L10.1818182,7.68802464 L8.85714286,7.68802464 L8.85714286,6.54039018 L11.5064935,6.54039018 L11.5064935,5.88464366 L8.85714286,5.88464366 L8.85714286,4.7370092 L10.1818182,4.7370092 L10.1818182,4.08126267 L8.85714286,4.08126267 L8.85714286,2.93362822 L10.1818182,2.93362822 L10.1818182,2.27788169 L8.85714286,2.27788169 L8.85714286,0.884615385 L13.1428571,0.884615385 L13.1428571,22.1153846 Z" id="Shape"></path>
                <path d="M2.5,0 C1.2546875,0 0.2221875,0.90737352 0.03375,2.08893972 L0,2.08893972 L0,2.47578041 L0,3.0114774 L0,18.3362487 L0.05,18.3362487 L2.5003125,23 L4.9503125,18.3362487 L5,18.3362487 L5,3.20551668 L5,2.47578041 L5,2.08893972 L4.96625,2.08893972 C4.7778125,0.90737352 3.7453125,0 2.5,0 Z M2.5,0.928417653 C3.2259375,0.928417653 3.8321875,1.42357374 4.0065625,2.08893972 L0.993125,2.08893972 C1.1678125,1.42326426 1.7740625,0.928417653 2.5,0.928417653 Z M0.9375,3.01735737 L2.1875,3.01735737 L2.1875,17.407831 L0.9375,17.407831 L0.9375,3.01735737 Z M2.5,20.9884284 L1.06595826,18.2588805 L3.93404174,18.2588805 L2.5,20.9884284 Z M4.0625,17.407831 L2.8125,17.407831 L2.8125,3.01735737 L4.0625,3.01735737 L4.0625,17.407831 Z" id="Shape"></path>
            </g>
        </g>
    </g>
</svg>